<svg width="130" height="85" viewBox="0 0 130 85" fill="none" xmlns="http://www.w3.org/2000/svg">
<path d="M6.00396 83.2786L4.11621 77.1702H5.24556L6.65519 82.413L8.14726 77.1702H9.26837L7.28994 83.2786H6.00396Z" fill="#F0C15A"/>
<path d="M17.0139 83.2456H16.0082V77.1702H17.0139V83.2456Z" fill="#F0C15A"/>
<path d="M27.0759 83.2456L25.93 81.0446C25.9135 81.0446 25.8916 81.0474 25.8641 81.0529C25.8366 81.0529 25.7926 81.0529 25.7322 81.0529C25.6772 81.0529 25.5893 81.0529 25.4684 81.0529C25.353 81.0529 25.1936 81.0529 24.9903 81.0529V83.2456H24.0011V77.1702H25.7487C26.007 77.1702 26.2625 77.2114 26.5153 77.2939C26.7681 77.3763 26.9934 77.4999 27.1913 77.6648C27.3946 77.8297 27.5567 78.0303 27.6776 78.2666C27.804 78.4974 27.8672 78.7584 27.8672 79.0497C27.8672 79.4894 27.7656 79.8631 27.5622 80.1708C27.3589 80.4786 27.0841 80.7066 26.7379 80.855L28.1228 83.2456H27.0759ZM24.9903 80.3275H25.8888C26.0097 80.3275 26.1306 80.3082 26.2515 80.2697C26.3724 80.2258 26.4823 80.1571 26.5813 80.0637C26.6802 79.9702 26.7599 79.8411 26.8203 79.6762C26.8808 79.5059 26.911 79.297 26.911 79.0497C26.911 78.9508 26.8973 78.8381 26.8698 78.7117C26.8423 78.5798 26.7846 78.4562 26.6967 78.3408C26.6142 78.2199 26.4961 78.121 26.3422 78.044C26.1883 77.9616 25.985 77.9204 25.7322 77.9204H24.9903V80.3275Z" fill="#F0C15A"/>
<path d="M39.2316 77.1702V77.8462H37.4181V83.2456H36.4206V77.8462H34.6071V77.1702H39.2316Z" fill="#F0C15A"/>
<path d="M50.5384 77.1702V80.1791C50.5384 80.6902 50.4807 81.1408 50.3652 81.531C50.2553 81.9212 50.0987 82.2454 49.8954 82.5037C49.692 82.762 49.4447 82.9571 49.1535 83.089C48.8622 83.2209 48.5379 83.2868 48.1807 83.2868C47.818 83.2868 47.491 83.2209 47.1998 83.089C46.914 82.9571 46.6667 82.762 46.4579 82.5037C46.2545 82.2454 46.0951 81.9212 45.9797 81.531C45.8698 81.1408 45.8149 80.6902 45.8149 80.1791V77.1702H46.8206V80.0801C46.8206 80.5308 46.8508 80.91 46.9112 81.2177C46.9772 81.5255 47.0679 81.7728 47.1833 81.9597C47.2987 82.141 47.4388 82.2729 47.6037 82.3553C47.7686 82.4378 47.9527 82.479 48.156 82.479C48.3648 82.479 48.5544 82.4405 48.7248 82.3636C48.8952 82.2866 49.0408 82.1575 49.1617 81.9761C49.2826 81.7948 49.376 81.5502 49.442 81.2425C49.5079 80.9347 49.5409 80.5473 49.5409 80.0801V77.1702H50.5384Z" fill="#F0C15A"/>
<path d="M57.2205 83.2456L59.3473 77.1785H60.3283L62.4386 83.2456H61.4164L60.9795 81.9844H58.6961L58.2509 83.2456H57.2205ZM58.9269 81.3167H60.7404L59.8419 78.6952L58.9269 81.3167Z" fill="#F0C15A"/>
<path d="M70.2171 77.1702V82.4955H73.0116V83.2456H69.2114V77.1702H70.2171Z" fill="#F0C15A"/>
<path d="M84.1123 77.1702H85.118V83.2456H84.1123V79.0662L82.7521 82.446H81.8783L80.5099 79.0662V83.2456H79.5042V77.1702H80.5099L82.3152 81.3249L84.1123 77.1702Z" fill="#F0C15A"/>
<path d="M97.0594 80.1791C97.0594 80.6902 96.9935 81.1408 96.8616 81.531C96.7352 81.9212 96.5566 82.2454 96.3258 82.5037C96.1004 82.762 95.8339 82.9571 95.5261 83.089C95.2239 83.2209 94.8914 83.2868 94.5287 83.2868C94.166 83.2868 93.8307 83.2209 93.523 83.089C93.2207 82.9571 92.9542 82.762 92.7234 82.5037C92.4981 82.2454 92.3194 81.9212 92.1875 81.531C92.0611 81.1408 91.9979 80.6902 91.9979 80.1791C91.9979 79.668 92.0611 79.2201 92.1875 78.8354C92.3194 78.4452 92.4981 78.121 92.7234 77.8627C92.9542 77.6044 93.2207 77.4093 93.523 77.2774C93.8307 77.14 94.166 77.0713 94.5287 77.0713C94.8914 77.0713 95.2239 77.14 95.5261 77.2774C95.8339 77.4093 96.1004 77.6044 96.3258 77.8627C96.5566 78.121 96.7352 78.4452 96.8616 78.8354C96.9935 79.2201 97.0594 79.668 97.0594 80.1791ZM94.504 82.479C94.7073 82.479 94.8996 82.4405 95.081 82.3636C95.2679 82.2811 95.4327 82.1493 95.5756 81.9679C95.724 81.7865 95.8394 81.5502 95.9218 81.259C96.0043 80.9622 96.0482 80.6022 96.0537 80.1791C96.0482 79.7669 96.0043 79.4179 95.9218 79.1322C95.8449 78.8409 95.735 78.6018 95.5921 78.415C95.4547 78.2281 95.2953 78.0935 95.114 78.011C94.9381 77.9286 94.7513 77.8874 94.5534 77.8874C94.3501 77.8874 94.155 77.9259 93.9681 78.0028C93.7868 78.0797 93.6219 78.2116 93.4735 78.3985C93.3306 78.5798 93.218 78.8162 93.1355 79.1074C93.0531 79.3987 93.0091 79.7559 93.0036 80.1791C93.0091 80.5912 93.0504 80.943 93.1273 81.2342C93.2097 81.5255 93.3196 81.7646 93.457 81.9514C93.5999 82.1328 93.7593 82.2674 93.9352 82.3553C94.1165 82.4378 94.3061 82.479 94.504 82.479Z" fill="#F0C15A"/>
<path d="M105.563 83.2786L103.676 77.1702H104.805L106.215 82.413L107.707 77.1702H108.828L106.849 83.2786H105.563Z" fill="#F0C15A"/>
<path d="M116.582 77.9204V79.8328H119.121V80.5088H116.582V82.4955H119.376V83.2456H115.576V77.1702H119.376V77.9204H116.582Z" fill="#F0C15A"/>
<path d="M129.652 81.5805C129.652 81.8003 129.606 82.0146 129.512 82.2234C129.424 82.4268 129.298 82.6081 129.133 82.7675C128.968 82.9214 128.765 83.045 128.523 83.1385C128.281 83.2319 128.006 83.2786 127.699 83.2786C127.567 83.2786 127.429 83.2704 127.286 83.2539C127.149 83.2429 127.009 83.2209 126.866 83.1879C126.723 83.155 126.586 83.111 126.454 83.056C126.328 82.9956 126.218 82.9241 126.124 82.8417L126.297 82.1328C126.374 82.1767 126.47 82.2207 126.586 82.2647C126.707 82.3031 126.83 82.3416 126.957 82.3801C127.083 82.413 127.21 82.4405 127.336 82.4625C127.462 82.4845 127.581 82.4955 127.69 82.4955C128.026 82.4955 128.281 82.4185 128.457 82.2647C128.638 82.1053 128.729 81.8717 128.729 81.564C128.729 81.3771 128.666 81.2177 128.54 81.0858C128.413 80.954 128.254 80.8358 128.061 80.7314C127.875 80.6215 127.671 80.5143 127.451 80.4099C127.232 80.3 127.025 80.1736 126.833 80.0307C126.641 79.8823 126.481 79.7092 126.355 79.5113C126.229 79.3135 126.165 79.0662 126.165 78.7694C126.165 78.5002 126.215 78.2611 126.314 78.0523C126.413 77.8434 126.545 77.6676 126.709 77.5247C126.88 77.3763 127.075 77.2636 127.295 77.1867C127.52 77.1098 127.756 77.0713 128.004 77.0713C128.256 77.0713 128.512 77.096 128.77 77.1455C129.029 77.1894 129.237 77.2636 129.397 77.3681C129.364 77.4395 129.325 77.5192 129.281 77.6071C129.237 77.6895 129.196 77.7692 129.158 77.8462C129.119 77.9176 129.086 77.9781 129.059 78.0275C129.031 78.077 129.015 78.1045 129.009 78.11C128.976 78.0935 128.938 78.0715 128.894 78.044C128.855 78.0165 128.798 77.9891 128.721 77.9616C128.644 77.9341 128.542 77.9149 128.416 77.9039C128.289 77.8929 128.127 77.8956 127.929 77.9121C127.82 77.9231 127.715 77.9561 127.616 78.011C127.517 78.0605 127.429 78.1237 127.352 78.2006C127.276 78.2776 127.215 78.3655 127.171 78.4644C127.127 78.5579 127.105 78.6485 127.105 78.7365C127.105 78.9563 127.168 79.1349 127.295 79.2723C127.421 79.4042 127.578 79.5223 127.765 79.6268C127.951 79.7257 128.155 79.8246 128.375 79.9235C128.594 80.0169 128.798 80.1324 128.985 80.2697C129.177 80.4071 129.336 80.5802 129.463 80.7891C129.589 80.9924 129.652 81.2562 129.652 81.5805Z" fill="#F0C15A"/>
<path fill-rule="evenodd" clip-rule="evenodd" d="M39.1995 26.3091C38.1506 28.099 37.3235 30.6771 36.5756 33.669C34.5444 41.7949 32.3259 47.5105 29.7596 51.0285C28.4556 52.8161 26.9415 54.2045 25.1495 54.9592C23.2948 55.7403 21.3963 55.7348 19.5915 55.1583C16.2345 54.086 13.1615 51.0224 10.3576 47.462C7.46216 43.7853 4.45408 39.0407 1.3501 33.8988C0.558463 32.5874 0.979803 30.8826 2.29119 30.091C3.60257 29.2994 5.3074 29.7207 6.09903 31.0321C9.19594 36.1623 12.0517 40.6473 14.7156 44.03C17.4712 47.529 19.6531 49.3548 21.2794 49.8742C21.9662 50.0936 22.4913 50.0597 22.9965 49.847C23.5642 49.6078 24.3461 49.0371 25.2781 47.7594C27.1841 45.1465 29.1987 40.3063 31.194 32.3238C31.9564 29.2741 32.9346 26.0283 34.4136 23.5045C35.9011 20.9663 38.2685 18.5749 41.8959 18.5743C45.2237 18.5738 48.6787 20.637 52.3654 24.2038C56.1452 27.8607 60.6294 33.5526 66.0322 41.814C66.8706 43.096 66.511 44.8149 65.229 45.6533C63.947 46.4917 62.2281 46.1321 61.3897 44.8501C56.0802 36.7314 51.8576 31.4309 48.5083 28.1905C45.066 24.8601 42.9699 24.1213 41.8968 24.1215C41.1233 24.1216 40.24 24.5336 39.1995 26.3091Z" fill="#FFB000"/>
<path fill-rule="evenodd" clip-rule="evenodd" d="M98.3854 34.727C97.3818 36.5896 96.6131 39.2355 95.9308 42.2947C94.0777 50.6037 91.9924 56.4905 89.5202 60.1783C88.264 62.0523 86.7926 63.5339 85.0347 64.3913C83.2155 65.2784 81.3375 65.3753 79.5403 64.891C76.1968 63.9899 73.095 61.0643 70.2496 57.6222C67.3116 54.068 64.2413 49.4424 61.0685 44.4211C60.2591 43.1402 60.6415 41.3969 61.9224 40.5273C63.2034 39.6577 64.898 39.9912 65.7073 41.2721C68.8729 46.2819 71.7871 50.6535 74.4899 53.9232C77.2855 57.305 79.481 59.03 81.1018 59.4667C81.7868 59.6513 82.3075 59.5889 82.8053 59.3462C83.3642 59.0736 84.1277 58.4547 85.0257 57.1151C86.862 54.3758 88.7623 49.3832 90.5826 41.2213C91.2781 38.1028 92.1835 34.7748 93.5987 32.1485C95.0222 29.5069 97.3182 26.9691 100.906 26.7733C104.198 26.5937 107.658 28.4885 111.378 31.8896C115.191 35.3762 119.741 40.8783 125.25 48.9236C126.105 50.1722 125.784 51.9264 124.533 52.8417C123.282 53.7569 121.575 53.4866 120.72 52.238C115.306 44.3318 111.023 39.211 107.644 36.1218C104.173 32.9472 102.082 32.3137 101.018 32.3718C100.249 32.4138 99.3808 32.8798 98.3854 34.727Z" fill="#FFB000"/>
<path d="M130 57.5382C130 59.07 128.758 60.3118 127.226 60.3118C125.694 60.3118 124.453 59.07 124.453 57.5382C124.453 56.0064 125.694 54.7646 127.226 54.7646C128.758 54.7646 130 56.0064 130 57.5382Z" fill="#202020"/>
</svg>
