<svg width="49" height="37" viewBox="0 0 49 37" fill="none" xmlns="http://www.w3.org/2000/svg">
<path d="M0.728693 37V26.5682C0.728693 23.5682 1.29119 20.4489 2.41619 17.2102C3.57528 13.9375 5.14347 10.8523 7.12074 7.95454C9.1321 5.02273 11.3821 2.55114 13.8707 0.539767L22.4616 6.11363C20.4503 9.14772 18.7628 12.3182 17.3991 15.625C16.0696 18.8977 15.4219 22.5114 15.456 26.4659V37H0.728693ZM26.6548 37V26.5682C26.6548 23.5682 27.2173 20.4489 28.3423 17.2102C29.5014 13.9375 31.0696 10.8523 33.0469 7.95454C35.0582 5.02273 37.3082 2.55114 39.7969 0.539767L48.3878 6.11363C46.3764 9.14772 44.6889 12.3182 43.3253 15.625C41.9957 18.8977 41.348 22.5114 41.3821 26.4659V37H26.6548Z" fill="black"/>
</svg>
